<svg id="Gruppe_73" data-name="Gruppe 73" xmlns="http://www.w3.org/2000/svg" xmlns:xlink="http://www.w3.org/1999/xlink" width="37.653" height="23.271" viewBox="0 0 37.653 23.271">
  <defs>
    <clipPath id="clip-path">
      <rect id="Rechteck_60" data-name="Rechteck 60" width="37.653" height="23.27" fill="none" stroke="#fff" stroke-width="1.5"/>
    </clipPath>
  </defs>
  <g id="Gruppe_72" data-name="Gruppe 72" transform="translate(0 0)" clip-path="url(#clip-path)">
    <path id="Pfad_47" data-name="Pfad 47" d="M10.808,31.189c-.959,1.74-1.785,2.689-2.226,3.722-.292-.237-.618-.51-.98-.85-.262,1.35-.609,2.117-.647,2.89-.1,2.1,1.987,3.2,3.853,3.2s3.955-1.1,3.853-3.2c-.037-.773-.385-1.541-.646-2.89-.362.34-.688.613-.98.85C12.592,33.878,11.766,32.929,10.808,31.189Z" transform="translate(-3.934 -17.653)" fill="none" stroke="#fff" stroke-linecap="round" stroke-linejoin="round" stroke-width="1.5"/>
    <path id="Pfad_48" data-name="Pfad 48" d="M65.812,31.189c-.959,1.74-1.785,2.689-2.226,3.722-.292-.237-.618-.51-.98-.85-.262,1.35-.609,2.117-.647,2.89-.1,2.1,1.987,3.2,3.853,3.2s3.955-1.1,3.853-3.2c-.037-.773-.385-1.541-.646-2.89-.362.34-.688.613-.98.85C67.6,33.878,66.77,32.929,65.812,31.189Z" transform="translate(-35.068 -17.653)" fill="none" stroke="#fff" stroke-linecap="round" stroke-linejoin="round" stroke-width="1.5"/>
    <path id="Pfad_49" data-name="Pfad 49" d="M36.805,25.716c-1.226,2.224-2.281,3.436-2.845,4.757-.374-.3-.791-.651-1.253-1.087-.335,1.726-.778,2.706-.826,3.694-.13,2.685,2.539,4.1,4.924,4.1s5.054-1.41,4.924-4.1c-.048-.988-.492-1.969-.826-3.694-.462.435-.88.783-1.253,1.087C39.086,29.152,38.031,27.94,36.805,25.716Z" transform="translate(-18.043 -14.556)" fill="none" stroke="#fff" stroke-linecap="round" stroke-linejoin="round" stroke-width="1.5"/>
    <path id="Pfad_50" data-name="Pfad 50" d="M8.491,1.5H37.268l1.174,7.526H7.318Z" transform="translate(-4.142 -0.849)" fill="none" stroke="#fff" stroke-linecap="round" stroke-linejoin="round" stroke-width="1.5"/>
    <line id="Linie_27" data-name="Linie 27" x1="0.647" y2="7.287" transform="translate(7.835 0.89)" fill="none" stroke="#fff" stroke-linecap="round" stroke-linejoin="round" stroke-width="1.5"/>
    <line id="Linie_29" data-name="Linie 29" x1="0.278" y2="7.287" transform="translate(13.111 0.731)" fill="none" stroke="#fff" stroke-linecap="round" stroke-linejoin="round" stroke-width="1.5"/>
    <line id="Linie_31" data-name="Linie 31" x2="0.092" y2="7.287" transform="translate(18.387 0.704)" fill="none" stroke="#fff" stroke-linecap="round" stroke-linejoin="round" stroke-width="1.5"/>
    <line id="Linie_33" data-name="Linie 33" x2="0.463" y2="7.287" transform="translate(23.663 0.678)" fill="none" stroke="#fff" stroke-linecap="round" stroke-linejoin="round" stroke-width="1.5"/>
    <line id="Linie_35" data-name="Linie 35" x2="0.833" y2="7.287" transform="translate(28.939 0.77)" fill="none" stroke="#fff" stroke-linecap="round" stroke-linejoin="round" stroke-width="1.5"/>
    <path id="Pfad_51" data-name="Pfad 51" d="M79.276,5.334h1.865l.733,3.584-2.2.059" transform="translate(-44.872 -3.019)" fill="none" stroke="#fff" stroke-linecap="round" stroke-linejoin="round" stroke-width="1.5"/>
    <path id="Pfad_52" data-name="Pfad 52" d="M4.1,5.372H2.233L1.5,8.956l2.2.059" transform="translate(-0.849 -3.041)" fill="none" stroke="#fff" stroke-linecap="round" stroke-linejoin="round" stroke-width="1.5"/>
  </g>
</svg>
