<svg xmlns="http://www.w3.org/2000/svg" width="20.574" height="25.718" viewBox="0 0 20.574 25.718">
  <path id="safety_check_FILL0_wght400_GRAD0_opsz48" d="M18.287,23.014a6.257,6.257,0,0,0,6.2-6.2,5.968,5.968,0,0,0-1.832-4.372,6.132,6.132,0,0,0-8.744,0,6.132,6.132,0,0,0,0,8.744,5.968,5.968,0,0,0,4.372,1.832Zm2.379-2.958-3.183-2.925V12.758h1.35v3.986l2.7,2.443Zm-2.379,9.612a12.624,12.624,0,0,1-7.394-5.224A15.247,15.247,0,0,1,8,15.459V7.808L18.287,3.95,28.574,7.808v7.651a15.247,15.247,0,0,1-2.893,8.985A12.624,12.624,0,0,1,18.287,29.668Zm0-1.993a11.6,11.6,0,0,0,6.028-4.613,13.116,13.116,0,0,0,2.331-7.6v-6.3l-8.358-3.15L9.929,9.158v6.3a13.116,13.116,0,0,0,2.331,7.6,11.6,11.6,0,0,0,6.028,4.613ZM18.287,16.841Z" transform="translate(-8 -3.95)" fill="#95af3d"/>
</svg>
