<svg xmlns="http://www.w3.org/2000/svg" width="19.148" height="25.132" viewBox="0 0 19.148 25.132">
  <path id="workspace_premium_FILL0_wght400_GRAD0_opsz48" d="M14.732,18l1.077-3.441-2.842-2.214h3.471l1.137-3.56,1.107,3.56h3.5l-2.842,2.214L20.387,18l-2.812-2.124Zm-4.219,11.13v-9.1a8.466,8.466,0,0,1-1.93-3.082A10.218,10.218,0,0,1,8,13.574,9.4,9.4,0,0,1,17.574,4a9.4,9.4,0,0,1,9.574,9.574,10.218,10.218,0,0,1-.583,3.381,8.466,8.466,0,0,1-1.93,3.082v9.1l-7.061-2.364Zm7.061-7.779a7.713,7.713,0,0,0,7.779-7.779A7.713,7.713,0,0,0,17.574,5.8,7.713,7.713,0,0,0,9.8,13.574a7.713,7.713,0,0,0,7.779,7.779Zm-5.266,5.266,5.266-1.646,5.266,1.646V21.5a8.119,8.119,0,0,1-2.573,1.257,9.515,9.515,0,0,1-5.385,0A8.119,8.119,0,0,1,12.308,21.5ZM17.574,24.046Z" transform="translate(-8 -4)" fill="#95af3d"/>
</svg>
