<svg id="Gruppe_69" data-name="Gruppe 69" xmlns="http://www.w3.org/2000/svg" xmlns:xlink="http://www.w3.org/1999/xlink" width="30.988" height="30.357" viewBox="0 0 30.988 30.357">
  <defs>
    <clipPath id="clip-path">
      <rect id="Rechteck_59" data-name="Rechteck 59" width="30.988" height="30.357" transform="translate(0 0)" fill="none" stroke="#707070" stroke-width="2"/>
    </clipPath>
  </defs>
  <g id="Gruppe_68" data-name="Gruppe 68" transform="translate(0 0)" clip-path="url(#clip-path)">
    <path id="Pfad_40" data-name="Pfad 40" d="M33.3,16.891a5.617,5.617,0,0,0,.734-3.131c-.081-1.647-.819-3.277-1.377-6.151-.768.725-2.055,1.248-2.677,1.754-.944-2.2-2.106-4.161-4.144-7.863-2.042,3.7-1.965,9.128-2.9,11.329-.622-.506-2.042-5.443-2.81-6.168a14.885,14.885,0,0,0-2.484,7.1,5.633,5.633,0,0,0,.579,2.848,6.391,6.391,0,0,0,2.454,2.569,7.446,7.446,0,0,0,.652.365,9.843,9.843,0,0,0,2.158.764c.253.06.51.107.768.146a10.413,10.413,0,0,0,1.587.124,9.582,9.582,0,0,0,.991-.051c.309-.026.618-.073.922-.129a9.874,9.874,0,0,0,2.3-.716" transform="translate(-10.069 -0.857)" fill="none" stroke="#333" stroke-linecap="round" stroke-linejoin="round" stroke-width="2"/>
    <path id="Pfad_41" data-name="Pfad 41" d="M9.007,36.72,2.126,43.6a2.133,2.133,0,0,0,0,3.02,2.138,2.138,0,0,0,3.02,0l6.966-6.966" transform="translate(-0.857 -20.969)" fill="none" stroke="#333" stroke-linecap="round" stroke-linejoin="round" stroke-width="2"/>
    <path id="Pfad_42" data-name="Pfad 42" d="M56.944,45.376a2.136,2.136,0,0,1-3.646,1.51l-5.761-5.761-.957-.957q.232-.1.45-.219a6.743,6.743,0,0,0,2.8-2.569l6.486,6.486A2.11,2.11,0,0,1,56.944,45.376Z" transform="translate(-26.599 -21.346)" fill="none" stroke="#333" stroke-linecap="round" stroke-linejoin="round" stroke-width="2"/>
    <path id="Pfad_43" data-name="Pfad 43" d="M35.538,45.43v8.039a2.134,2.134,0,1,1-4.268,0V45.34" transform="translate(-17.857 -25.891)" fill="none" stroke="#333" stroke-linecap="round" stroke-linejoin="round" stroke-width="2"/>
    <path id="Pfad_44" data-name="Pfad 44" d="M20.753,46.58l-1.724,4.465a1.852,1.852,0,0,0-.129.686,1.9,1.9,0,0,0,3.668.682l1.639-4.234" transform="translate(-10.793 -26.599)" fill="none" stroke="#333" stroke-linecap="round" stroke-linejoin="round" stroke-width="2"/>
    <path id="Pfad_45" data-name="Pfad 45" d="M39.07,44.434c.309-.026.618-.073.922-.129a9.874,9.874,0,0,0,2.3-.716q.232-.1.45-.219" transform="translate(-22.311 -24.766)" fill="none" stroke="#333" stroke-linecap="round" stroke-linejoin="round" stroke-width="2"/>
    <path id="Pfad_46" data-name="Pfad 46" d="M44.476,46.11l1.917,4.47a1.892,1.892,0,0,1-1,2.492,1.853,1.853,0,0,1-.751.154,1.894,1.894,0,0,1-1.742-1.15L41.22,48.148" transform="translate(-23.538 -26.331)" fill="none" stroke="#333" stroke-linecap="round" stroke-linejoin="round" stroke-width="2"/>
  </g>
</svg>
