<svg id="Gruppe_65" data-name="Gruppe 65" xmlns="http://www.w3.org/2000/svg" xmlns:xlink="http://www.w3.org/1999/xlink" width="24.242" height="33.739" viewBox="0 0 24.242 33.739">
  <defs>
    <clipPath id="clip-path">
      <rect id="Rechteck_58" data-name="Rechteck 58" width="24.242" height="33.739" fill="none" stroke="#fff" stroke-width="1.5"/>
    </clipPath>
  </defs>
  <g id="Gruppe_64" data-name="Gruppe 64" transform="translate(0 0)" clip-path="url(#clip-path)">
    <path id="Pfad_37" data-name="Pfad 37" d="M25.5,24.19H10.953l1.3-18.846A4.129,4.129,0,0,1,16.375,1.5h3.707A4.129,4.129,0,0,1,24.2,5.344Z" transform="translate(-6.107 -0.836)" fill="none" stroke="#fff" stroke-linecap="round" stroke-linejoin="round" stroke-width="1.5"/>
    <path id="Pfad_38" data-name="Pfad 38" d="M20.233,52.787H5.682l-1.744,1A4.86,4.86,0,0,0,1.5,58v4.506H24.415V58a4.86,4.86,0,0,0-2.439-4.214Z" transform="translate(-0.836 -29.433)" fill="none" stroke="#fff" stroke-linecap="round" stroke-linejoin="round" stroke-width="1.5"/>
    <path id="Pfad_39" data-name="Pfad 39" d="M13.169,20.736h3.2v8.219H21.25" transform="translate(-6.7 -11.562)" fill="none" stroke="#fff" stroke-linecap="round" stroke-linejoin="round" stroke-width="1.5"/>
    <line id="Linie_25" data-name="Linie 25" x2="2.117" transform="translate(13.284 9.174)" fill="none" stroke="#fff" stroke-linecap="round" stroke-linejoin="round" stroke-width="1.5"/>
  </g>
</svg>
