<svg id="Gruppe_75" data-name="Gruppe 75" xmlns="http://www.w3.org/2000/svg" xmlns:xlink="http://www.w3.org/1999/xlink" width="30.215" height="29.016" viewBox="0 0 30.215 29.016">
  <defs>
    <clipPath id="clip-path">
      <rect id="Rechteck_61" data-name="Rechteck 61" width="30.215" height="29.016" fill="none" stroke="#fff" stroke-width="1.5"/>
    </clipPath>
  </defs>
  <g id="Gruppe_74" data-name="Gruppe 74" clip-path="url(#clip-path)">
    <path id="Pfad_53" data-name="Pfad 53" d="M15.88,1.5C8.69,1.5,1.5,5.475,1.5,13.424V29.059H30.259V13.424C30.259,5.475,23.069,1.5,15.88,1.5Z" transform="translate(-0.772 -0.772)" fill="none" stroke="#fff" stroke-linecap="round" stroke-linejoin="round" stroke-width="1.5"/>
    <path id="Pfad_54" data-name="Pfad 54" d="M13.091,28.9V20.12c0-9.678,17.506-9.678,17.506,0V28.9" transform="translate(-6.736 -6.618)" fill="none" stroke="#fff" stroke-linecap="round" stroke-linejoin="round" stroke-width="1.5"/>
    <line id="Linie_36" data-name="Linie 36" x2="28.173" transform="translate(1.021 22.833)" fill="none" stroke="#fff" stroke-linecap="round" stroke-linejoin="round" stroke-width="1.5"/>
    <line id="Linie_37" data-name="Linie 37" x2="5.177" transform="translate(0.76 17.704)" fill="none" stroke="#fff" stroke-linecap="round" stroke-linejoin="round" stroke-width="1.5"/>
    <line id="Linie_38" data-name="Linie 38" x2="5.177" transform="translate(0.821 12.576)" fill="none" stroke="#fff" stroke-linecap="round" stroke-linejoin="round" stroke-width="1.5"/>
    <line id="Linie_39" data-name="Linie 39" x2="4.572" y2="3.026" transform="translate(2.751 6.177)" fill="none" stroke="#fff" stroke-linecap="round" stroke-linejoin="round" stroke-width="1.5"/>
    <line id="Linie_40" data-name="Linie 40" x2="2.247" y2="4.652" transform="translate(8.537 2.194)" fill="none" stroke="#fff" stroke-linecap="round" stroke-linejoin="round" stroke-width="1.5"/>
    <line id="Linie_41" data-name="Linie 41" y1="4.94" transform="translate(15.107 0.985)" fill="none" stroke="#fff" stroke-linecap="round" stroke-linejoin="round" stroke-width="1.5"/>
    <line id="Linie_42" data-name="Linie 42" x1="5.177" transform="translate(24.277 17.704)" fill="none" stroke="#fff" stroke-linecap="round" stroke-linejoin="round" stroke-width="1.5"/>
    <line id="Linie_43" data-name="Linie 43" x1="5.177" transform="translate(24.217 12.576)" fill="none" stroke="#fff" stroke-linecap="round" stroke-linejoin="round" stroke-width="1.5"/>
    <line id="Linie_44" data-name="Linie 44" x1="4.572" y2="3.026" transform="translate(22.893 6.177)" fill="none" stroke="#fff" stroke-linecap="round" stroke-linejoin="round" stroke-width="1.5"/>
    <line id="Linie_45" data-name="Linie 45" x1="2.187" y2="4.684" transform="translate(19.413 2.157)" fill="none" stroke="#fff" stroke-linecap="round" stroke-linejoin="round" stroke-width="1.5"/>
    <path id="Pfad_55" data-name="Pfad 55" d="M25.392,21.145c-1.344,2.439-2.5,3.769-3.121,5.217-.409-.333-.867-.715-1.374-1.192-.366,1.892-.853,2.967-.906,4.051-.143,2.946,2.784,4.492,5.4,4.492s5.543-1.546,5.4-4.492c-.052-1.084-.539-2.159-.906-4.051-.507.477-.965.859-1.374,1.192C27.894,24.914,26.737,23.584,25.392,21.145Z" transform="translate(-10.285 -10.881)" fill="none" stroke="#fff" stroke-linecap="round" stroke-linejoin="round" stroke-width="1.5"/>
    <path id="Pfad_56" data-name="Pfad 56" d="M28.548,32.77c-.316.644-.742,1.277-.947,1.814-.16-.13-.338-.278-.535-.465-.143.737-.321,1.158-.353,1.579a1.523,1.523,0,0,0,.2.884" transform="translate(-13.744 -16.863)" fill="none" stroke="#fff" stroke-linecap="round" stroke-linejoin="round" stroke-width="1.5"/>
  </g>
</svg>
