<svg xmlns="http://www.w3.org/2000/svg" width="26.828" height="19.481" viewBox="0 0 26.828 19.481">
  <path id="local_shipping_FILL0_wght400_GRAD0_opsz48" d="M7.609,27.481a3.591,3.591,0,0,1-3.6-3.6H2V9.829a1.755,1.755,0,0,1,.549-1.28A1.755,1.755,0,0,1,3.829,8H21.481v5.091h3.2l4.146,5.518v5.274H26.663a3.6,3.6,0,0,1-6.143,2.546,3.467,3.467,0,0,1-1.052-2.546H11.207a3.591,3.591,0,0,1-3.6,3.6Zm0-1.829a1.768,1.768,0,1,0-1.25-3.018,1.768,1.768,0,0,0,1.25,3.018Zm-3.78-3.6H4.5a4.039,4.039,0,0,1,1.311-1.311,3.431,3.431,0,0,1,3.552.015,4.248,4.248,0,0,1,1.326,1.3h8.963V9.829H3.829Zm19.237,3.6a1.769,1.769,0,1,0-1.25-.518A1.7,1.7,0,0,0,23.066,25.651Zm-1.585-6.219h5.67L23.767,14.92H21.481ZM11.756,16.262Z" transform="translate(-2 -8)" fill="#95af3d"/>
</svg>
