<svg xmlns="http://www.w3.org/2000/svg" width="20.843" height="20.843" viewBox="0 0 20.843 20.843">
  <path id="photo_FILL1_wght500_GRAD0_opsz48" d="M7.636,26.543a1.856,1.856,0,0,1-1.353-.584A1.856,1.856,0,0,1,5.7,24.607V7.636a1.842,1.842,0,0,1,.584-1.367A1.879,1.879,0,0,1,7.636,5.7H24.607a1.944,1.944,0,0,1,1.936,1.936V24.607a1.879,1.879,0,0,1-.569,1.353,1.842,1.842,0,0,1-1.367.584Zm1.452-4.584H23.183l-4.271-5.752-3.759,4.869L12.505,17.46Z" transform="translate(-5.7 -5.7)" fill="#26262c"/>
</svg>
